<?xml version="1.0" encoding="utf-8"?>
<!-- Generator: Adobe Illustrator 19.0.0, SVG Export Plug-In . SVG Version: 6.00 Build 0)  -->
<svg version="1.1" id="Layer_1" xmlns="http://www.w3.org/2000/svg" xmlns:xlink="http://www.w3.org/1999/xlink" x="0px" y="0px"
	 viewBox="-297 389.3 16.1 15.7" style="enable-background:new -297 389.3 16.1 15.7;" xml:space="preserve">
<style type="text/css">
	.st0{fill:#B18249;}
</style>
<path id="Icon_awesome-arrow-right" class="st0" d="M-290.1,390.3l0.8-0.8c0.3-0.3,0.9-0.3,1.2,0l0,0l7,7c0.3,0.3,0.3,0.9,0,1.2l0,0
	l-7,7c-0.3,0.3-0.9,0.3-1.2,0l0,0l-0.8-0.8c-0.3-0.3-0.3-0.9,0-1.2l0,0l4.3-4.1h-10.3c-0.5,0-0.9-0.4-0.9-0.9l0,0v-1.1
	c0-0.5,0.4-0.9,0.9-0.9l0,0h10.3l-4.3-4.1C-290.4,391.2-290.4,390.6-290.1,390.3L-290.1,390.3z"/>
</svg>
