<?xml version="1.0" encoding="utf-8"?>
<!-- Generator: Adobe Illustrator 19.0.0, SVG Export Plug-In . SVG Version: 6.00 Build 0)  -->
<svg version="1.1" id="Page-1" xmlns="http://www.w3.org/2000/svg" xmlns:xlink="http://www.w3.org/1999/xlink" x="0px" y="0px"
	 viewBox="-299 385.9 12.7 23.1" style="enable-background:new -299 385.9 12.7 23.1;" xml:space="preserve">
<style type="text/css">
	.st0{fill:#515151;}
</style>
<g id="Page-1-2" transform="translate(0 23.099) rotate(-90)">
	<g id="Dribbble-Light-Preview" transform="translate(0 0)">
		<g id="icons">
			<path id="arrow_up-_337_" class="st0" d="M-363.1-286.7L-363.1-286.7c0.4-0.5,0.4-1.2,0-1.7l-9.5-9.9c-0.9-0.9-2.3-0.9-3.2-0.1
				c0,0-0.1,0.1-0.1,0.1l-9.6,10c-0.4,0.5-0.5,1.2,0,1.7c0.4,0.5,1.2,0.5,1.6,0c0,0,0,0,0,0l8.8-9.1c0.4-0.5,1.2-0.5,1.6,0
				c0,0,0,0,0,0l8.7,9C-364.3-286.3-363.6-286.2-363.1-286.7C-363.2-286.7-363.2-286.7-363.1-286.7"/>
		</g>
	</g>
</g>
</svg>
