<?xml version="1.0" encoding="utf-8"?>
<!-- Generator: Adobe Illustrator 19.0.0, SVG Export Plug-In . SVG Version: 6.00 Build 0)  -->
<svg version="1.1" id="Page-1" xmlns="http://www.w3.org/2000/svg" xmlns:xlink="http://www.w3.org/1999/xlink" x="0px" y="0px"
	 viewBox="-304.2 391.1 23 12.8" style="enable-background:new -304.2 391.1 23 12.8;" xml:space="preserve">
<g id="Page-1-2" transform="translate(0 23.099) rotate(-90)">
	<g id="Dribbble-Light-Preview" transform="translate(0 0)">
		<g id="icons">
			<path id="arrow_up-_337_" d="M-368.4-303.9L-368.4-303.9c-0.5-0.4-1.2-0.4-1.7,0l-9.9,9.5c-0.9,0.9-0.9,2.3-0.1,3.2l0.1,0.1
				l10,9.6c0.5,0.4,1.2,0.5,1.7,0c0.5-0.4,0.5-1.2,0-1.6l0,0l-9.1-8.8c-0.5-0.4-0.5-1.2,0-1.6l0,0l9-8.7
				C-368-302.7-367.9-303.4-368.4-303.9C-368.4-303.8-368.4-303.8-368.4-303.9"/>
		</g>
	</g>
</g>
</svg>
