<svg id="Page-1" xmlns="http://www.w3.org/2000/svg" width="12.701" height="23.099" viewBox="0 0 12.701 23.099">
  <g id="Page-1-2" data-name="Page-1" transform="translate(12.701 0) rotate(90)">
    <g id="Dribbble-Light-Preview" transform="translate(0 0)">
      <g id="icons">
        <path id="arrow_up-_337_" data-name="arrow_up-[#337]" d="M22.763,12.275h0a1.224,1.224,0,0,0,0-1.687L13.218.7A2.25,2.25,0,0,0,9.952.7L.337,10.658a1.238,1.238,0,0,0-.012,1.686,1.141,1.141,0,0,0,1.646.013l8.8-9.125a1.136,1.136,0,0,1,1.633,0l8.728,9.044a1.115,1.115,0,0,0,1.632,0" fill="#fff" fill-rule="evenodd"/>
      </g>
    </g>
  </g>
</svg>
