<?xml version="1.0" encoding="utf-8"?>
<!-- Generator: Adobe Illustrator 19.0.0, SVG Export Plug-In . SVG Version: 6.00 Build 0)  -->
<svg version="1.1" id="Layer_1" xmlns="http://www.w3.org/2000/svg" xmlns:xlink="http://www.w3.org/1999/xlink" x="0px" y="0px"
	 viewBox="-297 389.3 16.1 15.7" style="enable-background:new -297 389.3 16.1 15.7;" xml:space="preserve">
<style type="text/css">
	.st0{fill:#B0C536;}
</style>
<path id="Icon_awesome-arrow-right" class="st0" d="M-290.2,390.4l0.8-0.8c0.3-0.3,0.9-0.3,1.2,0c0,0,0,0,0,0l7,7
	c0.3,0.3,0.3,0.9,0,1.2c0,0,0,0,0,0l-7,7c-0.3,0.3-0.9,0.3-1.2,0c0,0,0,0,0,0l-0.8-0.8c-0.3-0.3-0.3-0.9,0-1.2c0,0,0,0,0,0l4.3-4.1
	h-10.3c-0.5,0-0.9-0.4-0.9-0.9c0,0,0,0,0,0v-1.1c0-0.5,0.4-0.9,0.9-0.9c0,0,0,0,0,0h10.3l-4.3-4.1
	C-290.5,391.3-290.5,390.7-290.2,390.4C-290.2,390.4-290.2,390.4-290.2,390.4z"/>
</svg>
