<!-- Generated by IcoMoon.io -->
<svg version="1.1" xmlns="http://www.w3.org/2000/svg" width="640" height="640" viewBox="0 0 640 640">
<title></title>
<g id="icomoon-ignore">
</g>
<path fill="#000" d="M251.488 470.112l-25.92 25.76c-22.432 22.24-58.976 22.24-81.44 0-10.752-10.688-16.672-24.928-16.672-40.064s5.952-29.312 16.672-40.064l95.36-94.56c19.744-19.616 56.928-48.48 84.032-21.6 12.448 12.352 32.512 12.288 44.896-0.16 12.32-12.448 12.256-32.544-0.192-44.864-46.016-45.696-114.112-37.248-173.408 21.6l-95.36 94.592c-22.88 22.688-35.456 52.928-35.456 85.056 0 32.192 12.608 62.368 35.456 85.056 23.552 23.36 54.464 35.072 85.408 35.072s61.888-11.68 85.408-35.072l25.952-25.76c12.448-12.32 12.512-32.384 0.16-44.8-12.384-12.416-32.448-12.48-44.896-0.192zM540.512 102.624c-49.504-49.088-118.688-51.744-164.448-6.304l-32.288 32.064c-12.448 12.352-12.544 32.416-0.192 44.832 12.352 12.448 32.416 12.512 44.864 0.16l32.32-32.032c23.68-23.552 54.752-13.792 75.072 6.304 10.752 10.72 16.704 24.928 16.704 40.064s-5.952 29.344-16.704 40.032l-101.76 100.928c-46.528 46.112-68.352 24.512-77.664 15.264-12.448-12.352-32.512-12.256-44.832 0.16-12.352 12.448-12.288 32.544 0.16 44.832 21.376 21.184 45.76 31.68 71.296 31.68 31.264 0 64.32-15.744 95.776-46.944l101.76-100.896c22.784-22.72 35.424-52.928 35.424-85.056 0-32.16-12.64-62.368-35.488-85.088z"></path>
</svg>
