<?xml version="1.0" encoding="utf-8"?>
<!-- Generator: Adobe Illustrator 19.0.0, SVG Export Plug-In . SVG Version: 6.00 Build 0)  -->
<svg version="1.1" id="Layer_1" xmlns="http://www.w3.org/2000/svg" xmlns:xlink="http://www.w3.org/1999/xlink" x="0px" y="0px"
	 viewBox="-295 388.7 20.1 16.3" style="enable-background:new -295 388.7 20.1 16.3;" xml:space="preserve">
<path id="Icon_awesome-list-ul" d="M-293.1,388.7c-1,0-1.9,0.8-1.9,1.9c0,1,0.8,1.9,1.9,1.9c1,0,1.9-0.8,1.9-1.9
	C-291.2,389.5-292.1,388.7-293.1,388.7L-293.1,388.7z M-293.1,394.9c-1,0-1.9,0.8-1.9,1.9c0,1,0.8,1.9,1.9,1.9c1,0,1.9-0.8,1.9-1.9
	l0,0C-291.2,395.8-292.1,394.9-293.1,394.9C-293.1,394.9-293.1,394.9-293.1,394.9z M-293.1,401.2c-1,0-1.9,0.8-1.9,1.9
	c0,1,0.8,1.9,1.9,1.9c1,0,1.9-0.8,1.9-1.9l0,0C-291.2,402.1-292.1,401.2-293.1,401.2L-293.1,401.2z M-275.5,401.9h-12.6
	c-0.3,0-0.6,0.3-0.6,0.6v1.3c0,0.3,0.3,0.6,0.6,0.6h12.6c0.3,0,0.6-0.3,0.6-0.6v-1.3C-274.9,402.1-275.2,401.9-275.5,401.9
	C-275.5,401.9-275.5,401.9-275.5,401.9L-275.5,401.9z M-275.5,389.3h-12.6c-0.3,0-0.6,0.3-0.6,0.6l0,0v1.3c0,0.3,0.3,0.6,0.6,0.6
	l0,0h12.6c0.3,0,0.6-0.3,0.6-0.6v-1.3C-274.9,389.6-275.2,389.3-275.5,389.3C-275.5,389.3-275.5,389.3-275.5,389.3z M-275.5,395.6
	h-12.6c-0.3,0-0.6,0.3-0.6,0.6v1.3c0,0.3,0.3,0.6,0.6,0.6h12.6c0.3,0,0.6-0.3,0.6-0.6v-1.3C-274.9,395.9-275.2,395.6-275.5,395.6
	L-275.5,395.6z"/>
</svg>
