<svg id="search-icon" xmlns="http://www.w3.org/2000/svg" width="20.211" height="19.704" viewBox="0 0 20.211 19.704">
  <path id="Path_27247" data-name="Path 27247" d="M8.222,0h0a8.219,8.219,0,0,1,8.218,8.215h0v.012h0a8.213,8.213,0,0,1-.427,2.614q-.069.207-.144.4h0a8.226,8.226,0,0,1-.912,1.7l4.783,4.3,0,0,.026.024,0,0a1.42,1.42,0,0,1,.11,1.933l0,0-.029.033-.006.006-.024.026,0,0a1.421,1.421,0,0,1-1.933.11l0,0-.034-.029,0,0-4.892-4.4q-.217.153-.442.29c-.2.124-.413.241-.627.348a8.186,8.186,0,0,1-3.663.859h0A8.219,8.219,0,0,1,0,8.227H0V8.219H0A8.219,8.219,0,0,1,8.216,0h.005Zm0,1.844H8.216A6.379,6.379,0,0,0,1.844,8.219h0v.008h0A6.379,6.379,0,0,0,8.219,14.6h.008A6.379,6.379,0,0,0,14.6,8.225h0V8.217h0A6.379,6.379,0,0,0,8.225,1.844Z"/>
</svg>
